<?xml version="1.0" standalone="no"?>
<!DOCTYPE svg PUBLIC "-//W3C//DTD SVG 20010904//EN"
 "http://www.w3.org/TR/2001/REC-SVG-20010904/DTD/svg10.dtd">
<svg version="1.0" xmlns="http://www.w3.org/2000/svg"
 width="677.000000pt" height="155.000000pt" viewBox="0 0 677.000000 155.000000"
 preserveAspectRatio="xMidYMid meet">

<g transform="translate(0.000000,155.000000) scale(0.100000,-0.100000)"
fill="#000000" stroke="none">
<path d="M0 775 l0 -775 3385 0 3385 0 0 775 0 775 -3385 0 -3385 0 0 -775z
m6100 455 c84 -22 150 -45 150 -54 0 -2 -19 -15 -42 -29 -93 -54 -404 -294
-394 -304 2 -2 79 -38 172 -81 93 -43 238 -119 322 -169 l152 -91 -62 -50
c-35 -28 -74 -62 -88 -77 -14 -15 -51 -50 -83 -77 l-57 -50 -53 40 c-90 70
-262 214 -346 290 l-80 74 -21 -34 c-11 -18 -32 -68 -46 -111 -15 -47 -31 -77
-40 -77 -23 0 -209 42 -216 49 -3 3 0 35 8 71 7 36 14 92 14 126 0 54 4 66 35
107 19 25 35 48 35 51 0 2 -15 14 -34 26 -32 19 -35 25 -41 88 -4 37 -13 86
-20 109 -14 43 -14 43 13 49 15 3 52 12 83 20 92 23 101 20 122 -30 16 -39 62
-95 70 -85 2 2 26 33 53 69 27 36 77 95 111 131 l63 67 68 -13 c37 -7 105 -23
152 -35z m-2444 -59 c96 -85 144 -140 144 -165 0 -38 -23 -116 -34 -116 -14 0
-196 -87 -196 -94 0 -2 50 -45 110 -96 61 -50 110 -93 110 -97 0 -16 -63 -210
-72 -221 -8 -9 -60 -12 -197 -13 -102 0 -266 -6 -365 -12 -138 -10 -179 -10
-183 0 -3 6 7 46 22 88 52 153 58 496 9 635 -16 46 -21 79 -17 103 7 44 -10
41 298 62 127 9 235 18 240 19 17 5 36 -9 131 -93z m-2226 66 c0 -22 -70 -851
-72 -853 -2 -1 -46 -7 -98 -12 -64 -6 -99 -6 -108 1 -19 15 -124 195 -211 360
-40 76 -74 137 -76 135 -1 -2 4 -75 11 -163 11 -139 34 -264 60 -329 7 -18 3
-19 -52 -13 -32 4 -93 9 -135 13 l-76 6 -7 202 c-7 204 8 577 24 606 12 21
180 43 195 25 6 -6 70 -123 144 -258 74 -136 136 -245 138 -244 2 2 -1 96 -7
208 -5 112 -10 227 -10 256 l0 52 88 4 c48 1 111 4 140 5 28 1 52 1 52 -1z
m1415 -15 c25 -7 38 -23 73 -94 52 -102 62 -159 62 -361 0 -157 -15 -255 -52
-334 l-20 -43 -67 0 c-52 0 -305 -12 -505 -23 -25 -2 -33 5 -62 58 -42 75 -62
160 -80 345 -7 80 -14 148 -14 153 0 4 7 7 15 7 12 0 15 17 15 93 0 169 16
194 125 207 93 10 466 5 510 -8z m2362 -4 c19 -9 40 -39 73 -103 l45 -90 0
-235 c0 -215 -2 -241 -22 -306 -13 -39 -28 -76 -35 -81 -7 -6 -134 -16 -283
-22 -148 -6 -281 -14 -295 -17 -22 -5 -29 2 -57 48 -55 90 -83 241 -99 523 -6
115 -6 123 21 185 38 91 49 100 136 110 112 13 482 5 516 -12z m-1105 -24 l45
-6 6 -282 c4 -154 10 -298 13 -318 l7 -38 149 0 150 0 -7 -43 c-4 -23 -8 -43
-9 -43 0 -1 -73 -7 -161 -14 -88 -6 -205 -18 -260 -25 -55 -8 -101 -13 -102
-12 -9 10 -43 546 -43 690 l0 97 84 0 c46 0 103 -3 128 -6z m-1944 -99 c-2
-47 -6 -87 -9 -89 -3 -3 -56 3 -119 13 -63 11 -152 22 -196 26 l-81 7 -8 -89
c-3 -48 -9 -99 -12 -112 l-6 -24 109 6 c60 3 121 9 137 13 23 5 27 3 27 -15 0
-12 -5 -43 -12 -68 l-11 -46 -117 7 -117 7 -7 -116 c-4 -64 -5 -119 -3 -122 3
-2 84 5 180 16 215 26 203 26 222 -2 13 -21 13 -28 -8 -83 l-23 -59 -283 -8
c-156 -5 -285 -6 -288 -3 -20 19 -57 520 -51 691 l3 100 270 16 c149 9 301 17
339 17 l69 2 -5 -85z"/>
<path d="M3205 1054 c-22 -8 -43 -18 -47 -22 -9 -9 8 -122 19 -133 5 -4 40
-10 80 -14 l72 -7 17 58 17 58 -41 38 c-45 41 -57 44 -117 22z"/>
<path d="M3201 713 l-54 -4 7 -97 c4 -53 10 -100 14 -103 4 -4 58 -1 120 5
121 12 124 14 157 77 13 25 12 28 -34 73 -44 43 -53 47 -102 50 -30 2 -78 1
-108 -1z"/>
<path d="M2466 1020 c-77 -14 -79 -19 -67 -151 20 -201 19 -197 60 -218 89
-46 145 -47 244 -4 37 16 39 19 33 52 -3 20 -11 95 -18 168 l-12 132 -30 11
c-43 15 -153 20 -210 10z"/>
<path d="M4823 1020 c-83 -17 -80 -12 -67 -157 7 -70 13 -140 13 -155 1 -37
21 -53 97 -78 65 -22 68 -22 129 -5 103 28 98 14 78 207 -16 155 -18 167 -39
177 -33 15 -162 21 -211 11z"/>
</g>
</svg>
