<svg xmlns="http://www.w3.org/2000/svg" width="72" height="72" viewBox="0 0 72 72" version="1.1"><path d="M 28.500 3.031 C 15.832 3.962, 11.384 4.832, 9.850 6.681 C 8.531 8.269, 7.187 28.988, 7.069 49.527 C 6.968 67.157, 5.252 66, 31.492 66 C 43.250 66, 53.942 65.592, 55.253 65.094 C 56.919 64.460, 58.724 61.807, 61.254 56.272 C 67.417 42.789, 67.257 41.521, 58.791 36.762 L 54.977 34.619 57.946 31.556 C 60.817 28.594, 64 21.507, 64 18.077 C 64 16.127, 58.653 10.875, 51.366 5.668 C 45.743 1.650, 46.348 1.720, 28.500 3.031 M 22 7.202 C 17.325 7.715, 13.169 8.459, 12.764 8.854 C 12.359 9.250, 11.724 21.378, 11.353 35.806 L 10.679 62.040 32.589 61.770 L 54.500 61.500 57.708 54.840 C 63.170 43.503, 63.221 43.815, 55.085 38.981 C 51.188 36.666, 48.014 34.486, 48.032 34.136 C 48.049 33.786, 50.016 32.316, 52.404 30.868 C 55.672 28.887, 57.177 27.104, 58.494 23.656 C 59.456 21.137, 59.982 18.395, 59.662 17.563 C 59.343 16.731, 56.026 13.796, 52.291 11.040 L 45.500 6.030 38 6.149 C 33.875 6.214, 26.675 6.688, 22 7.202 M 25 22.477 L 25 30.176 29.202 29.466 C 39.149 27.785, 41.381 26.667, 42.182 22.966 C 43.266 17.957, 42.759 17.355, 36.835 16.605 C 33.901 16.234, 30.038 15.671, 28.250 15.354 L 25 14.777 25 22.477 M 28.731 22.256 C 28.459 24.040, 28.311 25.590, 28.401 25.699 C 28.768 26.145, 37.570 23.660, 38.450 22.862 C 39.910 21.537, 38.012 20.333, 33.363 19.634 C 29.303 19.024, 29.216 19.074, 28.731 22.256 M 32.149 38.044 C 28.106 39.047, 24.579 40.087, 24.311 40.355 C 24.043 40.623, 24.141 43.803, 24.528 47.421 L 25.233 54 31.081 54 C 35.666 54, 37.136 53.615, 37.883 52.219 C 38.817 50.473, 40.624 35.894, 39.879 36.110 C 39.671 36.170, 36.192 37.041, 32.149 38.044 M 34.500 41.549 C 33.950 41.701, 32.263 42.098, 30.750 42.432 C 28.393 42.951, 28 43.535, 28 46.519 C 28 49.805, 28.188 50, 31.372 50 C 34.551 50, 34.782 49.763, 35.405 45.866 C 36.113 41.443, 36.046 41.123, 34.500 41.549" stroke="none" fill="#fc0b0b" fill-rule="evenodd"/><path d="M 22 7.202 C 17.325 7.715, 13.169 8.459, 12.764 8.854 C 12.359 9.250, 11.724 21.378, 11.353 35.806 L 10.679 62.040 32.589 61.770 L 54.500 61.500 57.708 54.840 C 63.170 43.503, 63.221 43.815, 55.085 38.981 C 51.188 36.666, 48.014 34.486, 48.032 34.136 C 48.049 33.786, 50.016 32.316, 52.404 30.868 C 55.672 28.887, 57.177 27.104, 58.494 23.656 C 59.456 21.137, 59.982 18.395, 59.662 17.563 C 59.343 16.731, 56.026 13.796, 52.291 11.040 L 45.500 6.030 38 6.149 C 33.875 6.214, 26.675 6.688, 22 7.202 M 25 22.477 L 25 30.176 29.202 29.466 C 39.149 27.785, 41.381 26.667, 42.182 22.966 C 43.266 17.957, 42.759 17.355, 36.835 16.605 C 33.901 16.234, 30.038 15.671, 28.250 15.354 L 25 14.777 25 22.477 M 32.149 38.044 C 28.106 39.047, 24.579 40.087, 24.311 40.355 C 24.043 40.623, 24.141 43.803, 24.528 47.421 L 25.233 54 31.081 54 C 35.666 54, 37.136 53.615, 37.883 52.219 C 38.817 50.473, 40.624 35.894, 39.879 36.110 C 39.671 36.170, 36.192 37.041, 32.149 38.044" stroke="none" fill="#fcf4f4" fill-rule="evenodd"/></svg>