<svg xmlns="http://www.w3.org/2000/svg" width="320" height="78" viewBox="0 0 320 78" version="1.1"><path d="M 75.397 1.115 L 74.510 2.500 74.704 9.769 L 74.899 17.038 69.287 13.019 L 63.674 9 53.587 9.020 L 43.500 9.040 35.177 10.393 L 26.854 11.746 25.833 12.767 L 24.813 13.787 23.950 30.143 L 23.086 46.500 23.043 57.527 L 23 68.555 24.557 70.777 L 26.113 73 49.536 73 L 72.959 73 75.176 68.750 L 77.393 64.500 78.215 69.935 L 79.037 75.370 79.268 75.579 L 79.500 75.789 89.250 74.274 L 99 72.759 99 67.334 L 99 61.909 105.100 66.845 L 111.199 71.780 119.622 72.482 L 128.045 73.183 137.772 72.472 L 147.500 71.761 151.581 67.540 L 155.661 63.318 158.581 65.680 L 161.500 68.042 167.410 71.021 L 173.319 74 176.184 74 L 179.049 74 181.775 69.351 L 184.500 64.702 186.500 62.433 L 188.500 60.164 200.380 68.595 L 212.260 77.027 214.588 77.611 L 216.916 78.196 220.208 75.939 L 223.500 73.683 226.601 70.790 L 229.702 67.896 231.374 70.448 L 233.046 73 256.509 73 L 279.971 73 283.124 66.754 L 286.277 60.509 288.192 55.004 L 290.108 49.500 292.054 40.140 L 294 30.780 294 28.842 L 294 26.905 291.250 24.338 L 288.500 21.771 279.594 15.385 L 270.689 9 260.594 9.020 L 250.500 9.040 242.177 10.393 L 233.854 11.746 232.833 12.767 L 231.813 13.787 230.950 30.143 L 230.086 46.500 230.043 50.317 L 230 54.135 227.750 53.454 L 225.500 52.773 214.149 47.270 L 202.798 41.767 208.149 36.317 L 213.500 30.866 220.285 25.683 L 227.070 20.500 227.629 18.307 L 228.188 16.114 227.578 15.127 L 226.968 14.140 219.234 11.689 L 211.500 9.239 208.729 8.595 L 205.959 7.952 203.729 9.125 L 201.500 10.298 192.697 18.305 L 183.894 26.313 179.503 22.003 L 175.111 17.693 168.306 19.950 L 161.500 22.207 157.311 24.499 L 153.123 26.791 152.049 23.710 L 150.975 20.630 149.333 18.815 L 147.690 17 136.095 17.008 L 124.500 17.016 115.500 18.046 L 106.500 19.076 105 20.569 L 103.500 22.062 101.756 26.781 L 100.012 31.500 100.541 20.500 L 101.069 9.500 101.600 5.884 L 102.131 2.267 99.815 1.579 L 97.500 0.891 86.892 0.311 L 76.285 -0.270 75.397 1.115 M 78.505 3.992 L 77.807 5.121 78.486 22.310 L 79.164 39.500 80.510 54.845 L 81.856 70.190 82.367 70.700 L 82.877 71.211 88.939 70.507 L 95 69.804 95.005 61.652 L 95.010 53.500 95.985 34.500 L 96.959 15.500 97.540 10.343 L 98.121 5.185 95.310 4.654 L 92.500 4.122 85.851 3.492 L 79.203 2.863 78.505 3.992 M 43 13.118 L 32.500 13.957 30.410 14.884 L 28.320 15.811 27.663 30.156 L 27.007 44.500 27.004 56.750 L 27 69 49.042 69 L 71.085 69 74.042 62.750 L 76.998 56.500 76.999 52.764 L 77 49.028 73.250 46.670 L 69.500 44.312 66.710 42.607 L 63.921 40.902 68.680 37.701 L 73.440 34.500 74.839 30.793 L 76.239 27.086 75.594 24.520 L 74.950 21.953 68.225 16.992 L 61.500 12.030 57.500 12.154 L 53.500 12.278 43 13.118 M 194.390 22.246 L 183.752 32.492 178.977 27.075 L 174.201 21.659 166.851 24.351 L 159.500 27.044 158 28.032 L 156.500 29.019 160.500 32.763 L 164.500 36.508 168.939 40.150 L 173.377 43.793 168.385 49.646 L 163.393 55.500 161.132 58.466 L 158.872 61.433 160.686 62.798 L 162.500 64.163 169.225 67.582 L 175.950 71 176.402 71 L 176.853 71 179.894 65.750 L 182.935 60.500 185.217 57.740 L 187.500 54.981 200.867 64.490 L 214.234 74 215.913 74 L 217.593 74 224.479 67.697 L 231.365 61.393 230.804 59.931 L 230.242 58.468 222.371 55.076 L 214.500 51.685 206.250 47.262 L 198 42.838 198 42.066 L 198 41.294 207.250 32.397 L 216.500 23.500 220.243 21 L 223.985 18.500 223.679 17.561 L 223.374 16.621 215.937 14.329 L 208.500 12.038 206.764 12.019 L 205.028 12 194.390 22.246 M 250 13.118 L 239.500 13.957 237.410 14.884 L 235.320 15.811 234.663 30.156 L 234.007 44.500 234.004 56.750 L 234 69 256.065 69 L 278.130 69 281.639 61.406 L 285.147 53.813 287.564 43.156 L 289.982 32.500 289.991 29.884 L 290 27.269 279.127 19.634 L 268.255 12 264.377 12.139 L 260.500 12.278 250 13.118 M 122.147 21.059 L 109.794 21.865 108.503 22.360 L 107.212 22.856 104.648 30.678 L 102.083 38.500 100.542 45.312 L 99 52.124 99 54.441 L 99 56.757 104.446 61.410 L 109.893 66.063 112.696 67.525 L 115.500 68.988 129.300 68.994 L 143.099 69 145.943 67.530 L 148.786 66.059 152.486 61.020 L 156.185 55.980 155.523 50.740 L 154.861 45.500 152.890 38.091 L 150.919 30.683 148.836 25.841 L 146.754 21 142.627 20.986 L 138.500 20.973 136.500 20.613 L 134.500 20.253 122.147 21.059 M 41 29.381 L 41 37.038 43.250 36.576 L 45.500 36.115 51 34.926 L 56.500 33.738 57.750 32.747 L 59 31.755 59 27.986 L 59 24.217 56.750 23.657 L 54.500 23.097 47.750 22.411 L 41 21.724 41 29.381 M 248 41.362 L 248 61 253.750 60.985 L 259.500 60.969 260.647 60.235 L 261.794 59.500 263.901 43.500 L 266.008 27.500 266.004 25.858 L 266 24.217 263.750 23.657 L 261.500 23.097 254.750 22.411 L 248 21.724 248 41.362 M 45 29.128 L 45 32.256 49.155 31.591 L 53.309 30.927 54.155 30.404 L 55 29.882 55 28.558 L 55 27.233 52.750 26.630 L 50.500 26.027 47.750 26.014 L 45 26 45 29.128 M 251.661 31.137 L 251.017 36.500 251.009 46.750 L 251 57 254.433 57 L 257.865 57 258.396 55.250 L 258.927 53.500 260.558 40.678 L 262.189 27.856 261.644 27.311 L 261.099 26.765 256.702 26.270 L 252.305 25.774 251.661 31.137 M 117.143 33.750 L 116.216 35.500 115.108 42.692 L 114 49.883 114 53.442 L 114 57 126.128 57 L 138.257 57 137.758 46.250 L 137.258 35.500 136.522 33.750 L 135.786 32 126.928 32 L 118.070 32 117.143 33.750 M 156.349 36.030 L 157.046 38.500 158.248 45.750 L 159.451 53 160.105 53 L 160.759 53 164.347 48.622 L 167.935 44.243 161.793 38.901 L 155.652 33.560 156.349 36.030 M 124.318 35.729 L 120.135 36.108 119.566 38.804 L 118.996 41.500 118.164 47.750 L 117.331 54 126.215 54 L 135.099 54 134.502 47.750 L 133.905 41.500 133.407 38.250 L 132.909 35 130.705 35.175 L 128.500 35.349 124.318 35.729 M 72.667 39.498 L 70.835 40.841 73.003 42.002 L 75.171 43.162 75.607 42.726 L 76.043 42.290 75.271 40.223 L 74.500 38.155 72.667 39.498 M 48.250 44.802 L 41 46.384 41 53.692 L 41 61 46.750 60.985 L 52.500 60.969 53.583 60.235 L 54.665 59.500 55.833 52.307 L 57 45.115 57 44.057 L 57 43 56.250 43.110 L 55.500 43.220 48.250 44.802 M 47.500 48.873 L 44.500 49.509 44.190 53.254 L 43.879 57 47.421 57 L 50.962 57 51.541 54.250 L 52.120 51.500 52.467 49.750 L 52.813 48 51.656 48.118 L 50.500 48.237 47.500 48.873" stroke="none" fill="#fc0d0d" fill-rule="evenodd"/><path d="M 78.505 3.992 L 77.807 5.121 78.486 22.310 L 79.164 39.500 80.510 54.845 L 81.856 70.190 82.367 70.700 L 82.877 71.211 88.939 70.507 L 95 69.804 95.005 61.652 L 95.010 53.500 95.985 34.500 L 96.959 15.500 97.540 10.343 L 98.121 5.185 95.310 4.654 L 92.500 4.122 85.851 3.492 L 79.203 2.863 78.505 3.992 M 43 13.118 L 32.500 13.957 30.410 14.884 L 28.320 15.811 27.663 30.156 L 27.007 44.500 27.004 56.750 L 27 69 49.042 69 L 71.085 69 74.042 62.750 L 76.998 56.500 76.999 52.764 L 77 49.028 73.250 46.670 L 69.500 44.312 66.710 42.607 L 63.921 40.902 68.680 37.701 L 73.440 34.500 74.839 30.793 L 76.239 27.086 75.594 24.520 L 74.950 21.953 68.225 16.992 L 61.500 12.030 57.500 12.154 L 53.500 12.278 43 13.118 M 194.390 22.246 L 183.752 32.492 178.977 27.075 L 174.201 21.659 166.851 24.351 L 159.500 27.044 158 28.032 L 156.500 29.019 160.500 32.763 L 164.500 36.508 168.939 40.150 L 173.377 43.793 168.385 49.646 L 163.393 55.500 161.132 58.466 L 158.872 61.433 160.686 62.798 L 162.500 64.163 169.225 67.582 L 175.950 71 176.402 71 L 176.853 71 179.894 65.750 L 182.935 60.500 185.217 57.740 L 187.500 54.981 200.867 64.490 L 214.234 74 215.913 74 L 217.593 74 224.479 67.697 L 231.365 61.393 230.804 59.931 L 230.242 58.468 222.371 55.076 L 214.500 51.685 206.250 47.262 L 198 42.838 198 42.066 L 198 41.294 207.250 32.397 L 216.500 23.500 220.243 21 L 223.985 18.500 223.679 17.561 L 223.374 16.621 215.937 14.329 L 208.500 12.038 206.764 12.019 L 205.028 12 194.390 22.246 M 250 13.118 L 239.500 13.957 237.410 14.884 L 235.320 15.811 234.663 30.156 L 234.007 44.500 234.004 56.750 L 234 69 256.065 69 L 278.130 69 281.639 61.406 L 285.147 53.813 287.564 43.156 L 289.982 32.500 289.991 29.884 L 290 27.269 279.127 19.634 L 268.255 12 264.377 12.139 L 260.500 12.278 250 13.118 M 122.147 21.059 L 109.794 21.865 108.503 22.360 L 107.212 22.856 104.648 30.678 L 102.083 38.500 100.542 45.312 L 99 52.124 99 54.441 L 99 56.757 104.446 61.410 L 109.893 66.063 112.696 67.525 L 115.500 68.988 129.300 68.994 L 143.099 69 145.943 67.530 L 148.786 66.059 152.486 61.020 L 156.185 55.980 155.523 50.740 L 154.861 45.500 152.890 38.091 L 150.919 30.683 148.836 25.841 L 146.754 21 142.627 20.986 L 138.500 20.973 136.500 20.613 L 134.500 20.253 122.147 21.059 M 41 29.381 L 41 37.038 43.250 36.576 L 45.500 36.115 51 34.926 L 56.500 33.738 57.750 32.747 L 59 31.755 59 27.986 L 59 24.217 56.750 23.657 L 54.500 23.097 47.750 22.411 L 41 21.724 41 29.381 M 248 41.362 L 248 61 253.750 60.985 L 259.500 60.969 260.647 60.235 L 261.794 59.500 263.901 43.500 L 266.008 27.500 266.004 25.858 L 266 24.217 263.750 23.657 L 261.500 23.097 254.750 22.411 L 248 21.724 248 41.362 M 117.143 33.750 L 116.216 35.500 115.108 42.692 L 114 49.883 114 53.442 L 114 57 126.128 57 L 138.257 57 137.758 46.250 L 137.258 35.500 136.522 33.750 L 135.786 32 126.928 32 L 118.070 32 117.143 33.750 M 48.250 44.802 L 41 46.384 41 53.692 L 41 61 46.750 60.985 L 52.500 60.969 53.583 60.235 L 54.665 59.500 55.833 52.307 L 57 45.115 57 44.057 L 57 43 56.250 43.110 L 55.500 43.220 48.250 44.802" stroke="none" fill="#fcf5f5" fill-rule="evenodd"/></svg>